<svg id="Layer_1" data-name="Layer 1" xmlns="http://www.w3.org/2000/svg" viewBox="0 0 108.39 122.88"><defs><style>.cls-1{fill-rule:evenodd; fill:#ee834e;}</style></defs><title>what-if</title><path class="cls-1" d="M8.05,0h92.28a8.07,8.07,0,0,1,8.06,8.06V85.74a8.08,8.08,0,0,1-8.06,8.05H62.57v-.16c0-1.35,0-2.67-.06-4.88h38.86a2.22,2.22,0,0,0,2.22-2.23V19.46H5.12V86.52a2.1,2.1,0,0,0,.07.56A7.34,7.34,0,0,0,5,88.67a9.65,9.65,0,0,0,.86,4.17,5.15,5.15,0,0,0,.36.7l0,0A8.09,8.09,0,0,1,0,85.74V8.06A8.07,8.07,0,0,1,8.05,0ZM26.88,69.07a3.36,3.36,0,0,1,3.59,3.34V93.83h2.17V83.32c0-4.25,6.7-4.12,6.7.24v10.5l.1,0h2.35V85.68c0-4.25,6.7-4.12,6.7.23v7.76h2.36V87.76c0-4.25,6.7-4.12,6.7.23,0,4.9.28,10.68.1,15.57-.19,5.37-1.3,11.42-5.19,14.8a18.18,18.18,0,0,1-15,4.27c-9.22-1.46-11.55-7.11-15.94-14.07L10.37,90.9c-.69-1.61-.6-2.7.09-3.4,3-1.92,7.78,2.16,13.12,7.93l.19,0V72.18a3.12,3.12,0,0,1,3.11-3.11ZM17.28,40.3a3.53,3.53,0,0,1,5.86-3.92l1.91,2.1,5.61-7a3.52,3.52,0,0,1,5.44,4.48L27.62,46.15a3.77,3.77,0,0,1-.84.8,3.53,3.53,0,0,1-4.9-1l-4.6-5.68ZM88.13,68.57a3.7,3.7,0,0,0,0-7.39H49.51a3.7,3.7,0,1,0,0,7.39Zm0-26a3.7,3.7,0,0,0,0-7.39H49.51a3.7,3.7,0,1,0,0,7.39ZM17.64,54.63H36a2.51,2.51,0,0,1,2.51,2.51V72.61A2.52,2.52,0,0,1,36,75.12h-.53V72.41a8,8,0,0,0-2-5.37V59.65H20.15v8.1a8,8,0,0,0-1.34,4.43v2.94H17.64a2.52,2.52,0,0,1-2.51-2.51V57.14a2.51,2.51,0,0,1,2.51-2.51ZM92.66,7a4,4,0,1,1-4,4,4,4,0,0,1,4-4ZM65.71,7a4,4,0,1,1-4,4,4,4,0,0,1,4-4ZM79.19,7a4,4,0,1,1-4,4,4,4,0,0,1,4-4Z"/></svg>